<?xml version="1.0" standalone="no"?>
<!DOCTYPE svg PUBLIC "-//W3C//DTD SVG 20010904//EN"
 "http://www.w3.org/TR/2001/REC-SVG-20010904/DTD/svg10.dtd">
<svg version="1.0" xmlns="http://www.w3.org/2000/svg"
 width="32px" height="32px" viewBox="0 0 32.000000 32.000000"
 preserveAspectRatio="xMidYMid meet">

<g transform="translate(0.000000,32.000000) scale(0.100000,-0.100000)"
fill="#000000" stroke="none">
<path d="M80 306 c0 -9 -7 -12 -18 -9 -22 5 -46 -21 -38 -42 3 -9 0 -15 -9
-15 -10 0 -15 -10 -15 -30 0 -19 5 -30 14 -30 9 0 12 -7 9 -18 -5 -22 21 -46
42 -38 10 4 15 -1 15 -14 0 -12 7 -20 16 -20 11 0 14 -5 10 -16 -9 -23 22 -56
46 -48 12 3 18 0 18 -10 0 -11 9 -16 30 -16 21 0 30 5 30 16 0 10 6 13 18 10
24 -8 55 25 46 48 -4 11 -1 16 10 16 11 0 16 9 16 30 0 21 -5 30 -16 30 -11 0
-14 5 -10 16 9 23 -22 56 -46 48 -12 -3 -18 0 -18 10 0 9 -8 16 -19 16 -14 0
-18 5 -14 18 5 22 -21 46 -42 38 -9 -3 -15 0 -15 9 0 10 -10 15 -30 15 -19 0
-30 -5 -30 -14z m42 -18 c2 -6 13 -12 24 -12 22 -2 24 -6 24 -42 l0 -25 -23
27 c-19 22 -29 26 -50 20 -41 -10 -48 -53 -13 -83 l27 -23 -25 0 c-14 0 -29
-1 -33 -2 -3 -2 -7 8 -8 20 -1 13 -8 28 -16 33 -12 8 -12 10 0 18 8 5 15 19
16 32 1 16 8 23 25 24 13 1 26 7 28 13 2 7 7 12 12 12 5 0 10 -5 12 -12z m12
-57 c3 -4 -6 -18 -19 -31 -22 -20 -25 -21 -31 -6 -3 9 -4 23 0 31 6 16 41 21
50 6z m78 -23 c3 -7 17 -13 33 -13 24 -1 29 -6 30 -29 0 -15 7 -31 15 -37 13
-8 13 -10 0 -18 -8 -6 -15 -22 -15 -37 -1 -22 -7 -28 -29 -29 -15 0 -31 -7
-37 -15 -8 -13 -10 -13 -18 0 -6 8 -22 15 -37 15 -22 1 -28 7 -29 29 0 15 -7
31 -15 37 -13 8 -13 10 0 18 8 6 15 22 15 37 1 23 6 28 30 29 16 0 30 6 33 13
2 7 7 12 12 12 5 0 10 -5 12 -12z"/>
<path d="M160 160 c-11 -11 -20 -29 -20 -40 0 -26 34 -60 60 -60 26 0 60 34
60 60 0 26 -34 60 -60 60 -11 0 -29 -9 -40 -20z m70 -15 c26 -32 -13 -81 -47
-59 -10 6 -19 19 -21 28 -8 38 43 61 68 31z"/>
</g>
</svg>
