<?xml version="1.0" standalone="no"?>
<!DOCTYPE svg PUBLIC "-//W3C//DTD SVG 20010904//EN"
 "http://www.w3.org/TR/2001/REC-SVG-20010904/DTD/svg10.dtd">
<svg version="1.0" xmlns="http://www.w3.org/2000/svg"
 width="32px" height="32px" viewBox="0 0 32.000000 32.000000"
 preserveAspectRatio="xMidYMid meet">

<g transform="translate(0.000000,32.000000) scale(0.100000,-0.100000)"
fill="#000000" stroke="none">
<path d="M140 310 c0 -5 -20 -10 -43 -10 -45 0 -57 -9 -84 -57 -18 -31 -16
-53 7 -101 19 -39 23 -42 63 -43 l42 -2 -42 -6 c-50 -9 -83 -35 -83 -68 l0
-23 160 0 160 0 0 23 c0 33 -33 59 -83 68 l-42 6 42 2 c40 1 44 4 63 43 23 48
25 70 8 101 -28 48 -40 57 -85 57 -23 0 -43 5 -43 10 0 6 -9 10 -20 10 -11 0
-20 -4 -20 -10z m134 -36 c19 -19 22 -134 4 -152 -16 -16 -220 -16 -236 0 -18
18 -15 133 4 152 22 23 206 23 228 0z m-257 -91 c-3 -10 -5 -4 -5 12 0 17 2
24 5 18 2 -7 2 -21 0 -30z m290 0 c-3 -10 -5 -4 -5 12 0 17 2 24 5 18 2 -7 2
-21 0 -30z m-134 -90 c-7 -2 -19 -2 -25 0 -7 3 -2 5 12 5 14 0 19 -2 13 -5z
m107 -53 c0 -17 -4 -30 -10 -30 -5 0 -10 11 -10 25 l0 25 -100 0 -100 0 0 -25
c0 -14 -4 -25 -10 -25 -5 0 -10 13 -10 30 l0 30 120 0 120 0 0 -30z m-250 -5
c0 -14 -4 -25 -10 -25 -11 0 -14 33 -3 43 11 11 13 8 13 -18z m280 -6 c0 -10
-4 -19 -10 -19 -5 0 -10 12 -10 26 0 14 4 23 10 19 6 -3 10 -15 10 -26z m-60
1 c0 -19 -7 -20 -90 -20 -83 0 -90 1 -90 20 0 19 7 20 90 20 83 0 90 -1 90
-20z"/>
<path d="M52 258 c-16 -16 -16 -110 0 -126 16 -16 200 -16 216 0 16 16 16 110
0 126 -16 16 -200 16 -216 0z m216 -51 c2 -27 -2 -55 -9 -63 -15 -18 -179 -20
-197 -2 -13 13 -17 100 -5 112 4 4 52 5 107 4 l101 -3 3 -48z"/>
<path d="M74 236 c-10 -26 4 -48 28 -44 33 4 33 52 0 56 -13 2 -25 -3 -28 -12z
m44 -19 c2 -10 -3 -17 -12 -17 -18 0 -29 16 -21 31 9 14 29 6 33 -14z"/>
<path d="M194 236 c-10 -26 4 -48 28 -44 17 2 23 10 23 28 0 18 -6 26 -23 28
-13 2 -25 -3 -28 -12z m41 -17 c0 -7 -8 -15 -17 -17 -18 -3 -25 18 -11 32 10
10 28 1 28 -15z"/>
<path d="M125 181 c-6 -10 21 -41 35 -41 14 0 41 31 35 41 -4 5 -19 9 -35 9
-16 0 -31 -4 -35 -9z m55 -11 c0 -5 -9 -10 -20 -10 -11 0 -20 5 -20 10 0 6 9
10 20 10 11 0 20 -4 20 -10z"/>
</g>
</svg>
